<svg xmlns="http://www.w3.org/2000/svg" xmlns:xlink="http://www.w3.org/1999/xlink" width="700" zoomAndPan="magnify" viewBox="0 0 525 525.000007" height="700" preserveAspectRatio="xMidYMid meet" version="1.0"><defs><g/></defs><g fill="#ffffff" fill-opacity="1"><g transform="translate(5.822495, 323.216126)"><g><path d="M 14.234375 -78.296875 L 14.234375 -72.472656 L 98.570312 -23.078125 L 104.179688 -31.707031 L 28.039062 -75.277344 L 104.179688 -119.0625 L 98.140625 -127.257812 Z M 14.234375 -78.296875 "/></g></g></g><g fill="#ffffff" fill-opacity="1"><g transform="translate(124.235154, 323.216126)"><g><path d="M 78.511719 -118.632812 C 60.394531 -118.632812 42.921875 -111.082031 32.355469 -95.984375 L 32.355469 -159.183594 L 15.960938 -159.183594 L 15.960938 -59.53125 C 15.960938 -23.296875 41.628906 2.15625 77.21875 2.15625 C 113.023438 2.15625 138.90625 -23.511719 138.90625 -58.667969 C 138.90625 -93.394531 113.023438 -118.632812 78.511719 -118.632812 Z M 77.433594 -12.726562 C 51.335938 -12.726562 32.355469 -31.492188 32.355469 -58.453125 C 32.355469 -85.414062 51.121094 -103.964844 77.21875 -103.964844 C 103.535156 -103.964844 122.515625 -85.414062 122.515625 -58.453125 C 122.515625 -31.492188 103.75 -12.726562 77.433594 -12.726562 Z M 77.433594 -12.726562 "/></g></g></g><g fill="#ffffff" fill-opacity="1"><g transform="translate(274.353939, 323.216126)"><g><path d="M 17.039062 -150.984375 L 17.039062 -136.101562 L 88.21875 -136.101562 L 88.21875 -53.277344 C 88.21875 -29.117188 74.199219 -13.371094 51.980469 -13.371094 C 35.804688 -13.371094 22 -22.214844 14.019531 -34.941406 L 3.019531 -25.019531 C 12.726562 -8.628906 31.277344 2.15625 52.84375 2.15625 C 83.90625 2.15625 104.394531 -19.84375 104.394531 -53.277344 L 104.394531 -136.101562 L 121.21875 -136.101562 L 121.21875 -150.984375 Z M 17.039062 -150.984375 "/></g></g></g><g fill="#ffffff" fill-opacity="1"><g transform="translate(400.747053, 323.216126)"><g><path d="M 104.179688 -72.6875 L 104.179688 -78.511719 L 19.84375 -127.90625 L 14.234375 -119.277344 L 90.375 -75.707031 L 14.234375 -31.921875 L 20.273438 -23.726562 Z M 104.179688 -72.6875 "/></g></g></g></svg>